<svg xmlns="http://www.w3.org/2000/svg" xmlns:xlink="http://www.w3.org/1999/xlink" viewBox="0 0 100 100"><defs><style>.cls-1,.cls-2{fill:none;}.cls-1,.cls-3,.cls-4,.cls-7{clip-rule:evenodd;}.cls-17,.cls-3,.cls-6{fill:#10069f;}.cls-23,.cls-4,.cls-5{fill:#f2f2f2;}.cls-45,.cls-7,.cls-8{fill:#eead9e;}.cls-9{clip-path:url(#clip-path);}.cls-10{clip-path:url(#clip-path-2);}.cls-11{clip-path:url(#clip-path-3);}.cls-12{clip-path:url(#clip-path-4);}.cls-13{clip-path:url(#clip-path-5);}.cls-14{clip-path:url(#clip-path-6);}.cls-15{clip-path:url(#clip-path-7);}.cls-16{clip-path:url(#clip-path-8);}.cls-17,.cls-23,.cls-44,.cls-45{fill-rule:evenodd;}.cls-18{clip-path:url(#clip-path-9);}.cls-19{clip-path:url(#clip-path-10);}.cls-20{clip-path:url(#clip-path-11);}.cls-21{clip-path:url(#clip-path-12);}.cls-22{isolation:isolate;}.cls-24{clip-path:url(#clip-path-13);}.cls-25{clip-path:url(#clip-path-14);}.cls-26{fill:#fff;}.cls-27{clip-path:url(#clip-path-15);}.cls-28{clip-path:url(#clip-path-16);}.cls-29{clip-path:url(#clip-path-17);}.cls-30{clip-path:url(#clip-path-18);}.cls-31{clip-path:url(#clip-path-19);}.cls-32{clip-path:url(#clip-path-20);}.cls-33{clip-path:url(#clip-path-21);}.cls-34{clip-path:url(#clip-path-22);}.cls-35{clip-path:url(#clip-path-23);}.cls-36{clip-path:url(#clip-path-24);}.cls-37,.cls-44{fill:#e3775e;}.cls-38{clip-path:url(#clip-path-25);}.cls-39{clip-path:url(#clip-path-26);}.cls-40{fill:#0f059e;}.cls-41{clip-path:url(#clip-path-27);}.cls-42{clip-path:url(#clip-path-28);}.cls-43{fill:#fefefe;}.cls-46{clip-path:url(#clip-path-29);}.cls-47{clip-path:url(#clip-path-30);}.cls-48{clip-path:url(#clip-path-31);}.cls-49{clip-path:url(#clip-path-33);}.cls-50{clip-path:url(#clip-path-35);}.cls-51{clip-path:url(#clip-path-37);}.cls-52{clip-path:url(#clip-path-39);}.cls-53{clip-path:url(#clip-path-41);}.cls-54{clip-path:url(#clip-path-42);}.cls-55{clip-path:url(#clip-path-43);}.cls-56{clip-path:url(#clip-path-44);}</style><clipPath id="clip-path"><path class="cls-1" d="M145.91,31.91c1.54.4,1.3,2.66,1.38,3,.19.78.47.29.86-1,.26-.88.24-1.76,1.28-2.09.42-.14.21-.38-.06-.48-1.09-.43-1.27-2.1-1.35-2.21-.14-1-.41-1.06-.5-.58-.05.29-.36,2.24-1.65,2.87-.31.16-.23.43,0,.5"/></clipPath><clipPath id="clip-path-2"><path class="cls-1" d="M144.75,70.67c0-.07,0-.11,0-.1l0,0v-.07a1,1,0,0,1,0-.15,3.55,3.55,0,0,1-1.47,2.44c1.24.39,1.3,2,1.32,2.68v.18a8,8,0,0,0,.29-.86c0-.16.08-.31.11-.46a1.9,1.9,0,0,1,1.06-1.6A2.78,2.78,0,0,1,144.75,70.67Zm-.28,5.67c-.29,0-.39-.4-.42-.55a2.25,2.25,0,0,1,0-.35c0-.63-.06-1.94-1-2.19a.52.52,0,0,1-.39-.45.54.54,0,0,1,.31-.52,3.29,3.29,0,0,0,1.31-2.46c.08-.42.28-.47.4-.48s.42.31.52,1a1.31,1.31,0,0,1,.05.21c.1.41.32,1.39,1,1.65a.59.59,0,0,1,.42.53c0,.11-.05.32-.38.42-.6.21-.7.65-.84,1.27,0,.16-.07.32-.12.49-.31,1.09-.51,1.44-.8,1.44Z"/></clipPath><clipPath id="clip-path-3"><path class="cls-1" d="M182.62,34.06c.75-3.91.67-5.62-3-6.31-.5-.11-14.51-2.74-18.33-3.57-4-.86-4.36,1.42-5,4.59-.3,1.58-1.61,8.69-2,10.46s-1.4,7.63-1.87,9.71-2.27,10.88-2.87,14c-.58,3-1.42,6.09,1.43,6.65,1,.18,16.33,3.33,20.72,4.28,3.66.79,3.57-2.08,4.37-6,.39-1.92,1.71-8.73,2.13-11.1s1.94-10.21,2.41-12.36.91-4.76,2-10.35"/></clipPath><clipPath id="clip-path-4"><path class="cls-1" d="M161.54,36a2.65,2.65,0,0,0-1,.38,2.41,2.41,0,0,0-1,1.52L155,61a2.33,2.33,0,0,0,.38,1.79,2.44,2.44,0,0,0,1.56,1L168.59,66a2.46,2.46,0,0,0,1.83-.37,2.37,2.37,0,0,0,1-1.52L176,41a2.33,2.33,0,0,0-.38-1.79,2.44,2.44,0,0,0-1.56-1L162.41,36a2.54,2.54,0,0,0-.87,0m8.08,31a3.28,3.28,0,0,1-1.21,0l-11.67-2.2a3.38,3.38,0,0,1-2.16-1.4,3.24,3.24,0,0,1-.52-2.47l4.57-23.19a3.3,3.3,0,0,1,1.43-2.11,3.43,3.43,0,0,1,2.53-.51l11.67,2.2a3.38,3.38,0,0,1,2.16,1.4,3.24,3.24,0,0,1,.52,2.47l-4.57,23.19a3.3,3.3,0,0,1-1.43,2.11,3.41,3.41,0,0,1-1.32.52"/></clipPath><clipPath id="clip-path-5"><path class="cls-1" d="M167.52,52.08c-1,.67-5.58,4.29-5.71,4.21a9.68,9.68,0,0,1,1.59-2.55,26.6,26.6,0,0,0,2.35-3.58c0-.44-.86-.55-1.52-.69s-1.47-.22-1.27-.58.82-1.17,1.1-1.63,2.11-2.92,2.41-3.26c.6-.67.73-1.1,1-1,.49.16,2.76.48,2.93.53.45.13-1.16,1.69-1.65,2.17A18.12,18.12,0,0,0,167,47.88c-.27.45-.66,1-.14,1.13a16.55,16.55,0,0,1,3.09.91c.09.22-1.38,1.49-2.38,2.16M171,49.26a20.55,20.55,0,0,0-2.43-.71c-.61-.15-.61-.15-.4-.53.38-.65,3.16-3.81,3.51-4.26s.52-.92,0-1-4.64-1.09-5-.57-3.47,4.65-4.08,5.61a14,14,0,0,1-1,1.26c-.51.73,0,.88,1,1.08.61.13,1.79.33,1.81.51a40.42,40.42,0,0,1-2.65,4.11c-.72,1-1.55,2.38-1.67,2.65-.22.52.19.67.41.62a21.33,21.33,0,0,0,3.89-2.39c1.83-1.36,6-4.69,6.47-5.14s.72-.94.16-1.2"/></clipPath><clipPath id="clip-path-6"><path class="cls-1" d="M160.58,32a2.88,2.88,0,0,0-1.08.43,2.67,2.67,0,0,0-1.15,1.74L153,61.87a2.76,2.76,0,0,0,2.17,3.2L170.45,68a2.71,2.71,0,0,0,2.05-.42,2.67,2.67,0,0,0,1.15-1.74L179,38.13a2.76,2.76,0,0,0-2.17-3.2L161.55,32a2.88,2.88,0,0,0-1,0m11,37a3.61,3.61,0,0,1-1.31,0L155,66a3.69,3.69,0,0,1-2.91-4.3h0L157.42,34A3.69,3.69,0,0,1,159,31.63a3.65,3.65,0,0,1,2.76-.56L177,34a3.69,3.69,0,0,1,2.91,4.3L174.58,66A3.66,3.66,0,0,1,173,68.37a3.88,3.88,0,0,1-1.45.58"/></clipPath><clipPath id="clip-path-7"><rect class="cls-2" x="157.86" y="79.87" width="23.52" height="0.95"/></clipPath><clipPath id="clip-path-8"><path class="cls-1" d="M195.64,76.76c-8-.14-8.21-.05-16.12.15-.87,0-1.22.67-.33.68,8.24.14,5.91.12,13.8,0,1.63,0,3.58-.07,3.68-.5.06-.27-.59-.35-1-.36"/></clipPath><clipPath id="clip-path-9"><path class="cls-3" d="M193.48,73.74c-4.33.07-4.57-.11-6.52-.1s-4,0-4,.61c0,.26.77.36,1.92.37,3.8,0,7.09,0,8.2,0s1.58,0,1.85-.33c.26-.56-1.45-.56-1.45-.56"/></clipPath><clipPath id="clip-path-10"><path class="cls-3" d="M197.19,48.22c-4.33.08-4.57-.11-6.52-.09s-4,0-4,.6c0,.26.77.36,1.92.37,3.8,0,7.09,0,8.2,0s1.58,0,1.85-.33c.26-.56-1.45-.56-1.45-.56"/></clipPath><clipPath id="clip-path-11"><path class="cls-1" d="M187.46,60.61c1.93.51,1.62,3.41,1.72,3.81.24,1,.59.38,1.07-1.26.34-1.12.3-2.26,1.61-2.69.53-.17.26-.48-.08-.61-1.36-.55-1.59-2.7-1.69-2.84-.17-1.27-.51-1.36-.62-.74-.07.36-.45,2.87-2.06,3.68-.39.2-.29.56.05.65"/></clipPath><clipPath id="clip-path-12"><path class="cls-3" d="M145.32,59.85c3.7,0,7.52-.19,11.18.1.84.22.08.55-.24.55-.78.3-3.09.22-5.68.17-3.09,0-8.09.13-9.94.13s-1.68-.34-1.69-.47a.27.27,0,0,1,.26-.25c2-.1,4.07-.21,6.11-.23"/></clipPath><clipPath id="clip-path-13"><path class="cls-4" d="M88.8,49.42A37.28,37.28,0,1,1,51.52,12.14,37,37,0,0,1,88.8,49.42"/></clipPath><clipPath id="clip-path-14"><rect class="cls-5" x="13.65" y="11.89" width="76" height="75"/></clipPath><clipPath id="clip-path-15"><path class="cls-3" d="M23.05,43.78c0-.05,0-.09,0-.08l0-.05v-.06a.69.69,0,0,1,0-.13,3.06,3.06,0,0,1-1.39,2.13c1.18.33,1.23,1.73,1.25,2.33v.15a4.86,4.86,0,0,0,.27-.75,2.85,2.85,0,0,0,.11-.39,1.68,1.68,0,0,1,1-1.4A2.43,2.43,0,0,1,23.05,43.78Zm-.25,4.94c-.28,0-.37-.35-.4-.48a1.74,1.74,0,0,1,0-.3c0-.55-.06-1.69-.95-1.91a.48.48,0,0,1-.37-.39.44.44,0,0,1,.3-.45,2.85,2.85,0,0,0,1.24-2.14c.07-.37.26-.42.37-.42s.41.27.5.86l.05.18c.09.36.3,1.21.92,1.44.26.1.41.27.4.45s0,.28-.36.38c-.57.17-.66.56-.8,1.1,0,.14-.07.28-.11.42-.3.95-.48,1.26-.75,1.26Z"/></clipPath><clipPath id="clip-path-16"><rect class="cls-6" x="-671.75" y="-842.3" width="1440" height="1162"/></clipPath><clipPath id="clip-path-17"><path class="cls-3" d="M73.7,76c-1.1-.53-1.37-2.15-1.42-2.39-.07-.4-.31-.34-.43.48-.06.09-.22,1.49-1.15,1.84-.24.09-.42.29-.06.4.9.27.88,1,1.1,1.74.34,1.06.58,1.47.75.82.06-.26-.15-2.14,1.18-2.47.23-.06.31-.29,0-.42"/></clipPath><clipPath id="clip-path-18"><rect class="cls-6" x="-678.91" y="-833.12" width="1440" height="1162"/></clipPath><clipPath id="clip-path-19"><path class="cls-3" d="M81.55,66.76c-1.41-.67-1.75-2.74-1.81-3-.1-.51-.4-.43-.55.61-.08.12-.28,1.89-1.48,2.34-.29.12-.53.37-.07.51,1.15.35,1.12,1.29,1.41,2.22.42,1.35.73,1.87.94,1,.09-.33-.18-2.72,1.51-3.15.3-.07.39-.36,0-.53"/></clipPath><clipPath id="clip-path-20"><rect class="cls-6" x="-675.41" y="-830.82" width="1440" height="1162"/></clipPath><clipPath id="clip-path-21"><path class="cls-1" d="M90.15,55.21c-1.27-.06-6.46,0-10.19,0-.74,0-1.12.34-1.11.56s.2.4,1.2.48c1.34.09,2.31.18,4.18.16,2.75,0,5.38-.14,5.86-.16,1.14-.06,1.84-1,.06-1"/></clipPath><clipPath id="clip-path-22"><rect class="cls-2" x="-512.74" y="-863.26" width="1226.28" height="6162"/></clipPath><clipPath id="clip-path-23"><path class="cls-1" d="M94.94,51.58a129.43,129.43,0,0,0-13.08.19c-.71,0-1,.85-.28.87,6.7.18,4.81.15,11.21,0,1.32,0,2.91-.08,3-.63,0-.34-.47-.45-.83-.46"/></clipPath><clipPath id="clip-path-24"><rect class="cls-2" x="-516.82" y="-864" width="1226.28" height="6162"/></clipPath><clipPath id="clip-path-25"><path class="cls-1" d="M48.6,76.73c-4.3.09-8.46,0-10.4,0s-4,.06-4,.7c0,.3.77.42,1.91.43,3.78,0,11-.12,12.08-.14s1.57,0,1.84-.39c.25-.65-1.45-.65-1.45-.65"/></clipPath><clipPath id="clip-path-26"><rect class="cls-2" x="-654.26" y="-835.3" width="1440" height="6162"/></clipPath><clipPath id="clip-path-27"><path class="cls-1" d="M53.38,46.72l0,0s0,0,0,0"/></clipPath><clipPath id="clip-path-28"><rect class="cls-2" x="-673.04" y="-842.74" width="1440" height="6162"/></clipPath><clipPath id="clip-path-29"><path class="cls-7" d="M71.43,52c-1.28,0-8.23.15-9.24-1.25-.83-1.15.32-2.54,2.64-3.07a25.35,25.35,0,0,1,6.51-.38c1.26,0,2,0,2-.38s-1-.57-4-.5c-2.5.06-5.22-.06-7.48,1.49a2.3,2.3,0,0,0-.47,3.49c1.56,1.47,5.32,1.37,8.69,1.36,2.17,0,3.5.07,3.75-.23.41-.49-1.08-.53-2.42-.53"/></clipPath><clipPath id="clip-path-30"><rect class="cls-8" x="-673.54" y="-844.85" width="1440" height="6162"/></clipPath><clipPath id="clip-path-31"><path class="cls-7" d="M72.66,49.4c-.44-.07-.86,0-2.87-.09s-4.71-.13-5.1-.06c-.65.1-.4.82.33.84,3.08.08,4.16,0,7.1.06,1.41,0,1.69-.77.54-.75"/></clipPath><clipPath id="clip-path-33"><path class="cls-7" d="M70.68,60.28a35.21,35.21,0,0,1-6.44-.46,14,14,0,0,1-6-2.39,20,20,0,0,1-6.7-7.65c-1.93-3.65-3-5.66-6.59-7.78s-10.81-2.11-12.91-2.11-3.21.65-2.53.94c.4.18,5.59,0,8.17.21a15.29,15.29,0,0,1,7.4,2.26,17.59,17.59,0,0,1,5.28,6.59,20.93,20.93,0,0,0,7.85,8.86c3.5,2.12,8.93,2.66,12.74,2.56,2.49-.07,2.63-.23,2.63-.63s-.89-.4-2.94-.4"/></clipPath><clipPath id="clip-path-35"><path class="cls-7" d="M30.37,52.17c4.22,0,7.11.29,10.28-.5,1.8-.45,2.67-1.56,2.74-2.43.21-2.37-2.58-3.58-5.18-3.78a50.69,50.69,0,0,0-8.2.09c-1,.1-1.51,1-.25,1,1.69,0,3.05-.15,7.21-.12,1.53,0,4.88.37,5.39,2,.34,1.09-.09,1.73-1.91,2.24-3.34.93-5.87.66-8.63.68s-3.05.2-2.72.6c.16.2.78.23,1.27.25"/></clipPath><clipPath id="clip-path-37"><path class="cls-7" d="M38.27,49.54c.63,0,2.63-.1,1.72-.9a13.74,13.74,0,0,0-4-.3c-1.88,0-4.09.07-5.87.18-1.94.12-1,1.12-.26,1.06,3.24.15,5.18,0,8.42,0"/></clipPath><clipPath id="clip-path-39"><path class="cls-7" d="M71.27,54.36c-4.66.11-8.95-.25-10.77-1.7A2.89,2.89,0,0,1,59,49.84a4.81,4.81,0,0,1,1.85-3A10.12,10.12,0,0,1,66,45.12,36.43,36.43,0,0,1,72.08,45c1.53,0,1.67-.77.2-.79s-3.59-.06-5.65,0a13.26,13.26,0,0,0-6.59,2A5.42,5.42,0,0,0,57.77,50c0,2.14,1.81,3.48,3.26,4a23.94,23.94,0,0,0,9.7,1.29c2.14-.08,3.36-.12,3.37-.64s-1.86-.36-2.83-.34"/></clipPath><clipPath id="clip-path-41"><path class="cls-1" d="M80.11,27.82c-.13-.39-1.76-.45-3.6-.34h-.29c-.29,0,.06-.61.49-2.94s.9-4.53.57-5-1.91,3-2,3.12S73,28,72.74,28.7c-.41,1-.8,1.69-.53,2.12a7.73,7.73,0,0,0,2.42,0c.88,0,.75.16.66.35s-.64,1.94-.87,2.54l-.26.67c-.24.6-1.5,3.88-1.12,4.07s6.63-9.69,6.7-9.78a1.42,1.42,0,0,0,.38-.86Z"/></clipPath><clipPath id="clip-path-42"><rect class="cls-2" x="-671.48" y="-846.51" width="1440" height="6162"/></clipPath><clipPath id="clip-path-43"><path class="cls-3" d="M61.91,23.54c-1.1-.53-1.37-2.15-1.42-2.39-.07-.4-.31-.34-.43.48-.06.09-.22,1.49-1.16,1.84-.23.09-.41.29,0,.4.9.28.88,1,1.1,1.74.34,1.06.58,1.47.74.82.07-.26-.14-2.14,1.19-2.47.23-.06.3-.29,0-.42"/></clipPath><clipPath id="clip-path-44"><rect class="cls-6" x="-690.7" y="-885.54" width="1440" height="6162"/></clipPath></defs><g id="Layer_1" data-name="Layer 1"><path class="cls-17" d="M193.48,73.74c-4.33.07-4.57-.11-6.52-.1s-4,0-4,.61c0,.26.77.36,1.92.37,3.8,0,7.09,0,8.2,0s1.58,0,1.85-.33c.26-.56-1.45-.56-1.45-.56"/><g class="cls-18"><rect class="cls-6" x="-814.44" y="-816.36" width="1440" height="6162"/></g><path class="cls-17" d="M197.19,48.22c-4.33.08-4.57-.11-6.52-.09s-4,0-4,.6c0,.26.77.36,1.92.37,3.8,0,7.09,0,8.2,0s1.58,0,1.85-.33c.26-.56-1.45-.56-1.45-.56"/><g class="cls-19"><rect class="cls-6" x="-810.73" y="-841.87" width="1440" height="6162"/></g><path class="cls-17" d="M145.32,59.85c3.7,0,7.52-.19,11.18.1.84.22.08.55-.24.55-.78.3-3.09.22-5.68.17-3.09,0-8.09.13-9.94.13s-1.68-.34-1.69-.47a.27.27,0,0,1,.26-.25c2-.1,4.07-.21,6.11-.23"/><g class="cls-21"><rect class="cls-6" x="-1433.5" y="-825.2" width="2151.58" height="6162"/></g><g class="cls-22"><path class="cls-23" d="M88.8,49.42A37.28,37.28,0,1,1,51.52,12.14,37,37,0,0,1,88.8,49.42"/><g class="cls-24"><rect class="cls-5" x="13.65" y="11.89" width="76" height="75"/><g class="cls-25"><rect class="cls-26" x="9.25" y="7.14" width="84.55" height="84.55"/></g></g></g><path class="cls-17" d="M23.05,43.78c0-.05,0-.09,0-.08l0-.05v-.06a.69.69,0,0,1,0-.13,3.06,3.06,0,0,1-1.39,2.13c1.18.33,1.23,1.73,1.25,2.33v.15a4.86,4.86,0,0,0,.27-.75,2.85,2.85,0,0,0,.11-.39,1.68,1.68,0,0,1,1-1.4A2.43,2.43,0,0,1,23.05,43.78Zm-.25,4.94c-.28,0-.37-.35-.4-.48a1.74,1.74,0,0,1,0-.3c0-.55-.06-1.69-.95-1.91a.48.48,0,0,1-.37-.39.44.44,0,0,1,.3-.45,2.85,2.85,0,0,0,1.24-2.14c.07-.37.26-.42.37-.42s.41.27.5.86l.05.18c.09.36.3,1.21.92,1.44.26.1.41.27.4.45s0,.28-.36.38c-.57.17-.66.56-.8,1.1,0,.14-.07.28-.11.42-.3.95-.48,1.26-.75,1.26Z"/><g class="cls-27"><rect class="cls-6" x="-671.75" y="-842.3" width="1440" height="6162"/><g class="cls-28"><rect class="cls-6" x="16.05" y="37.63" width="13.79" height="16.09"/></g></g><path class="cls-17" d="M73.7,76c-1.1-.53-1.37-2.15-1.42-2.39-.07-.4-.31-.34-.43.48-.06.09-.22,1.49-1.15,1.84-.24.09-.42.29-.06.4.9.27.88,1,1.1,1.74.34,1.06.58,1.47.75.82.06-.26-.15-2.14,1.18-2.47.23-.06.31-.29,0-.42"/><g class="cls-29"><rect class="cls-6" x="-678.91" y="-833.12" width="1440" height="6162"/><g class="cls-30"><rect class="cls-6" x="65.43" y="68.33" width="13.44" height="15.83"/></g></g><path class="cls-17" d="M81.55,66.76c-1.41-.67-1.75-2.74-1.81-3-.1-.51-.4-.43-.55.61-.08.12-.28,1.89-1.48,2.34-.29.12-.53.37-.07.51,1.15.35,1.12,1.29,1.41,2.22.42,1.35.73,1.87.94,1,.09-.33-.18-2.72,1.51-3.15.3-.07.39-.36,0-.53"/><g class="cls-31"><rect class="cls-6" x="-675.41" y="-830.82" width="1440" height="6162"/><g class="cls-32"><rect class="cls-6" x="72.38" y="58.41" width="14.39" height="17.43"/></g></g><g class="cls-33"><g class="cls-34"><rect class="cls-6" x="74.59" y="50.18" width="20.9" height="11.23"/></g></g><g class="cls-35"><g class="cls-36"><rect class="cls-37" x="76.91" y="46.49" width="23.13" height="11.27"/></g></g><g class="cls-38"><g class="cls-39"><rect class="cls-40" x="31.36" y="71.97" width="25.85" height="11.18"/></g></g><g class="cls-41"><g class="cls-42"><rect class="cls-43" x="48.38" y="41.72" width="10.02" height="10.04"/></g></g><path class="cls-44" d="M74.37,44c-.23-6.15,0-7.57-.75-7.88A53.36,53.36,0,0,0,52.57,31.9c-8.38,0-17.29,1-23.59,5.06-.48.41-.37,5.51-.46,7h0c0,.3,0,11.42,0,11.41,0,5.06-.15,7.13.43,7.37,0,0,6.76,3.78,19.38,4.14,11.69.33,21.92-1.3,26-4.9.47-.43.3-12.68.1-18"/><path class="cls-45" d="M71.43,52c-1.28,0-8.23.15-9.24-1.25-.83-1.15.32-2.54,2.64-3.07a25.35,25.35,0,0,1,6.51-.38c1.26,0,2,0,2-.38s-1-.57-4-.5c-2.5.06-5.22-.06-7.48,1.49a2.3,2.3,0,0,0-.47,3.49c1.56,1.47,5.32,1.37,8.69,1.36,2.17,0,3.5.07,3.75-.23.41-.49-1.08-.53-2.42-.53"/><g class="cls-46"><rect class="cls-8" x="-673.54" y="-844.85" width="1440" height="6162"/><g class="cls-47"><rect class="cls-8" x="55.8" y="41.45" width="23.12" height="16.36"/></g></g><path class="cls-45" d="M72.66,49.4c-.44-.07-.86,0-2.87-.09s-4.71-.13-5.1-.06c-.65.1-.4.82.33.84,3.08.08,4.16,0,7.1.06,1.41,0,1.69-.77.54-.75"/><g class="cls-48"><rect class="cls-8" x="-673.54" y="-844.85" width="1440" height="6162"/><g class="cls-47"><rect class="cls-8" x="59.32" y="44.22" width="19.06" height="10.93"/></g></g><path class="cls-45" d="M48.72,40.48c.52-.35,3.33-.43,5.22-.21a14.19,14.19,0,0,0-2.28,2.57,19.13,19.13,0,0,0-2.94-2.36m-1.49-.72a22.1,22.1,0,0,0-4.33-1.41,51.79,51.79,0,0,1,5.56-.82A41.38,41.38,0,0,1,58,38l-.39.11a9.31,9.31,0,0,0-2.84,1.31,19.27,19.27,0,0,0-7.58.35M35.06,37.1c1.07-.45,5.51-2.08,15.43-2.33,5.47-.14,12.15.51,16.19,1.95-1.39,0-5.5.39-6.84.6a74.21,74.21,0,0,0-7.7-.71A51.39,51.39,0,0,0,41,37.73a36.55,36.55,0,0,0-6-.63M72.34,57.17A27.79,27.79,0,0,1,62,55.9c-4.46-1.68-6.67-5-6.44-6.65C56,46.6,59.34,44.54,61.49,44a36.76,36.76,0,0,1,9.6-1.16c2.09-.07,2.57-.05,2.57-.38s-.9-.53-1.79-.52c-3.91.08-7.46,0-11.17,1.21-4.65,1.62-5.88,4.89-5.94,5.08-.18-.39-.52-1.22-.73-1.6a8.44,8.44,0,0,1,4.64-4.69c4.06-1.65,8.3-1.55,12.53-1.71,1.15-.05,1.92.07,2-.17.22-.42-.38-.68-1.72-.67-2,0-4.27.12-6.12.3-3.32.4-6.21.65-8.65,2.09a8.79,8.79,0,0,0-3.38,3.71c-.18-.29-.9-1.64-1-1.82A7.4,7.4,0,0,1,53.64,42a12.22,12.22,0,0,1,6.9-3.6,49.61,49.61,0,0,1,8.8-.76c1.19,0,1.74.3,3.1.31.63,0,.73-.37-.28-.55-1.27-.22-2.65-.63-3.26-.73C63.57,34.33,57,33.79,50.81,33.85c-6.38.06-13,.79-17.84,3.17-1.53.36-4.79,1.76-2.86,1.61,1.59-.13,2.48-.55,4.08-.55A25.83,25.83,0,0,1,46.1,40.41c5.42,2.27,6.28,5.06,8.44,10.15a11.9,11.9,0,0,0,8,6.71,28.11,28.11,0,0,0,7.93.95c1.82,0,3.28,0,3.24-.7,0-.35-.57-.38-1.38-.35"/><path class="cls-45" d="M70.68,60.28a35.21,35.21,0,0,1-6.44-.46,14,14,0,0,1-6-2.39,20,20,0,0,1-6.7-7.65c-1.93-3.65-3-5.66-6.59-7.78s-10.81-2.11-12.91-2.11-3.21.65-2.53.94c.4.18,5.59,0,8.17.21a15.29,15.29,0,0,1,7.4,2.26,17.59,17.59,0,0,1,5.28,6.59,20.93,20.93,0,0,0,7.85,8.86c3.5,2.12,8.93,2.66,12.74,2.56,2.49-.07,2.63-.23,2.63-.63s-.89-.4-2.94-.4"/><g class="cls-49"><rect class="cls-8" x="-673.54" y="-844.85" width="1440" height="6162"/><g class="cls-47"><rect class="cls-8" x="24.35" y="34.89" width="54.26" height="31.43"/></g></g><path class="cls-45" d="M62,63.17c-1.06.11-12.58,1.78-21.74.15a44.16,44.16,0,0,0,5.27-1,45.3,45.3,0,0,0,12.55-.65,32,32,0,0,0,4.6,1.38l-.68.1M46.55,61.51a9.48,9.48,0,0,0,2.32-1.57,20.25,20.25,0,0,0,5.69-.28A15.86,15.86,0,0,0,56.81,61a31.06,31.06,0,0,1-10.26.47m4.61-4.82a21.06,21.06,0,0,0,2.44,2.25,21.57,21.57,0,0,1-4.05.17,8.06,8.06,0,0,0,1.61-2.42m15.37,6a21.91,21.91,0,0,1-10.94-3.6,26.23,26.23,0,0,1-7.29-8.44A44.6,44.6,0,0,0,46,46.46c-2.25-2.83-4.89-3.65-9.43-3.73-4.77-.09-8.3,0-7.39.88a7.92,7.92,0,0,0,2.81.24c3.1,0,6.42-.08,9,.61s4.58,2.24,4.58,4.31c0,2.35-2,4.15-4.95,4.64A69,69,0,0,1,30.42,54c-1.46.07-1.56.6-.36.72a60.84,60.84,0,0,0,10.47-.22c2.36-.33,5.86-2.14,6-4.67.2.33.68,1.24.88,1.57a7.39,7.39,0,0,1-4.58,4.27c-4.34,1.3-9.64,1-12.1,1s-1.74.68-.14.86a49,49,0,0,0,8.09-.12c4.55-.41,7.33-1.1,9.42-4.69.08.13.57.76.66.9-2.63,5.55-7.4,6.69-13.36,6.37-1-.06-3.81-.32-5.17-.29s-1.11.29-1.06.43,4.27,1,9.69.86A12.53,12.53,0,0,0,49.5,54.75c.19.26.7.88.9,1.16-.41,1.69-2.36,3.33-3.2,4-3.54,2.73-9.26,2.68-11.15,2.66s-5.56,0-4.73.35,4.39.61,7.84,1c7.09,1.8,18.05,1,23.8,0,1.89-.15,7.41-.1,7.29-.52s-1.11-.65-3.72-.71"/><path class="cls-45" d="M30.37,52.17c4.22,0,7.11.29,10.28-.5,1.8-.45,2.67-1.56,2.74-2.43.21-2.37-2.58-3.58-5.18-3.78a50.69,50.69,0,0,0-8.2.09c-1,.1-1.51,1-.25,1,1.69,0,3.05-.15,7.21-.12,1.53,0,4.88.37,5.39,2,.34,1.09-.09,1.73-1.91,2.24-3.34.93-5.87.66-8.63.68s-3.05.2-2.72.6c.16.2.78.23,1.27.25"/><g class="cls-50"><rect class="cls-8" x="-673.54" y="-844.85" width="1440" height="6162"/><g class="cls-47"><rect class="cls-8" x="24" y="40.34" width="24.4" height="16.9"/></g></g><path class="cls-45" d="M38.27,49.54c.63,0,2.63-.1,1.72-.9a13.74,13.74,0,0,0-4-.3c-1.88,0-4.09.07-5.87.18-1.94.12-1,1.12-.26,1.06,3.24.15,5.18,0,8.42,0"/><g class="cls-51"><rect class="cls-8" x="-673.54" y="-844.85" width="1440" height="6162"/><g class="cls-47"><rect class="cls-8" x="23.95" y="43.34" width="21.28" height="11.29"/></g></g><path class="cls-45" d="M71.27,54.36c-4.66.11-8.95-.25-10.77-1.7A2.89,2.89,0,0,1,59,49.84a4.81,4.81,0,0,1,1.85-3A10.12,10.12,0,0,1,66,45.12,36.43,36.43,0,0,1,72.08,45c1.53,0,1.67-.77.2-.79s-3.59-.06-5.65,0a13.26,13.26,0,0,0-6.59,2A5.42,5.42,0,0,0,57.77,50c0,2.14,1.81,3.48,3.26,4a23.94,23.94,0,0,0,9.7,1.29c2.14-.08,3.36-.12,3.37-.64s-1.86-.36-2.83-.34"/><g class="cls-52"><rect class="cls-8" x="-673.54" y="-844.85" width="1440" height="6162"/><g class="cls-47"><rect class="cls-8" x="52.76" y="39.15" width="26.34" height="21.22"/></g></g><path class="cls-6" d="M18.59,68.23a0,0,0,0,0,0,0,0,0,0,0,1,0,0m6.71-5.94c.79,0,.75,1-.32,1.1-3.28.34-5.14,1.55-6.21,2.83-.67.79-1.29,2.45-.17,3.47,1.33,1.22,4.66,1.39,9.57,1,2.82-.2,3.81-.21,5.09-.21,1.1,0,1.74,1-.81,1.11-4.31.11-3.66,0-6,.08-5.51.13-9.28-.08-9.69-2.16-.47-2.34,1.22-4.6,2.56-5.45a10.59,10.59,0,0,1,5.94-1.82"/><path class="cls-37" d="M12.89,70.54a.43.43,0,0,0,0,.07l0-.07m2.18-5c.37-.11.6,0,.66.19s0,.43-.35.55a5.29,5.29,0,0,0-1.07.52c-2,1.44-2.68,3.85.1,4.94l-.11,0c4.91,2.29,10.53,1.47,15.78,1.47,4.91-.18,13.81-.5,18.73-.35,1.15,0,1.34.41,1.23.62s-.95.49-3,.45c-4.31-.08-13.07.07-17.38.25-4.48.08-9.06.4-13.44-.73-2.26-.51-6-2.34-4.47-5.09a4.81,4.81,0,0,1,3.12-2.7Z"/><path class="cls-6" d="M44.69,48.07H43V49h1.62v.81H43v1h1.78v.85H42V47.25h2.67Z"/><path class="cls-6" d="M50.18,47.24h.47V51.6h-.93V49.24l-1.09,1.37h-.12l-1.1-1.37V51.6h-.93V47.24H47l1.62,2.13Z"/><path class="cls-6" d="M56.1,47.24h.46V51.6h-.93V49.24l-1.09,1.37h-.12l-1.09-1.37V51.6H52.4V47.24h.46l1.62,2.13Z"/><path class="cls-6" d="M58.36,47.25H61V51.6H58.31v-.85h1.78v-1H58.47V49h1.62v-.89H58.36Z"/><g class="cls-53"><g class="cls-54"><rect class="cls-6" x="67.12" y="14.49" width="18" height="29"/></g></g><path class="cls-17" d="M61.91,23.54c-1.1-.53-1.37-2.15-1.42-2.39-.07-.4-.31-.34-.43.48-.06.09-.22,1.49-1.16,1.84-.23.09-.41.29,0,.4.9.28.88,1,1.1,1.74.34,1.06.58,1.47.74.82.07-.26-.14-2.14,1.19-2.47.23-.06.3-.29,0-.42"/><g class="cls-55"><rect class="cls-6" x="-690.7" y="-885.54" width="1000" height="1162"/><g class="cls-56"><rect class="cls-6" x="53.64" y="15.91" width="8.44" height="5.83"/></g></g></g></svg>