<svg xmlns="http://www.w3.org/2000/svg" xmlns:xlink="http://www.w3.org/1999/xlink" viewBox="0 0 100 100"><defs><style>.cls-1,.cls-2,.cls-9{fill:#fff;}.cls-1,.cls-3,.cls-5,.cls-7{clip-rule:evenodd;}.cls-3,.cls-4{fill:none;}.cls-30,.cls-5,.cls-6{fill:#10069f;}.cls-46,.cls-48,.cls-7{fill:#eead9e;}.cls-8{isolation:isolate;}.cls-30,.cls-46,.cls-9{fill-rule:evenodd;}.cls-10{clip-path:url(#clip-path);}.cls-11{clip-path:url(#clip-path-2);}.cls-12{clip-path:url(#clip-path-3);}.cls-13{clip-path:url(#clip-path-4);}.cls-14{clip-path:url(#clip-path-5);}.cls-15{clip-path:url(#clip-path-6);}.cls-16{clip-path:url(#clip-path-7);}.cls-17{clip-path:url(#clip-path-8);}.cls-18{fill:#e3775e;}.cls-19{clip-path:url(#clip-path-9);}.cls-20{fill:#fefefe;}.cls-21{clip-path:url(#clip-path-11);}.cls-22{clip-path:url(#clip-path-13);}.cls-23{clip-path:url(#clip-path-15);}.cls-24{clip-path:url(#clip-path-16);}.cls-25{clip-path:url(#clip-path-17);}.cls-26{clip-path:url(#clip-path-18);}.cls-27{clip-path:url(#clip-path-19);}.cls-28{clip-path:url(#clip-path-20);}.cls-29{clip-path:url(#clip-path-21);}.cls-31{clip-path:url(#clip-path-22);}.cls-32{clip-path:url(#clip-path-23);}.cls-33{clip-path:url(#clip-path-24);}.cls-34{clip-path:url(#clip-path-25);}.cls-35{clip-path:url(#clip-path-26);}.cls-36{clip-path:url(#clip-path-27);}.cls-37{clip-path:url(#clip-path-28);}.cls-38{clip-path:url(#clip-path-29);}.cls-39{clip-path:url(#clip-path-30);}.cls-40{clip-path:url(#clip-path-31);}.cls-41{clip-path:url(#clip-path-32);}.cls-42{clip-path:url(#clip-path-33);}.cls-43{clip-path:url(#clip-path-34);}.cls-44{clip-path:url(#clip-path-35);}.cls-45{clip-path:url(#clip-path-36);}.cls-47{clip-path:url(#clip-path-37);}.cls-49{clip-path:url(#clip-path-38);}.cls-50{clip-path:url(#clip-path-39);}.cls-51{clip-path:url(#clip-path-40);}.cls-52{clip-path:url(#clip-path-41);}.cls-53{clip-path:url(#clip-path-42);}.cls-54{clip-path:url(#clip-path-43);}.cls-55{clip-path:url(#clip-path-44);}</style><clipPath id="clip-path"><path class="cls-1" d="M86.93,50A36.93,36.93,0,1,1,50,13,37,37,0,0,1,86.93,50"/></clipPath><clipPath id="clip-path-2"><rect class="cls-2" x="12.65" y="12.63" width="75" height="75"/></clipPath><clipPath id="clip-path-3"><path class="cls-3" d="M29.91,31.91c1.54.4,1.3,2.66,1.38,3,.19.78.47.29.86-1,.26-.88.24-1.76,1.28-2.09.42-.14.21-.38-.06-.48-1.09-.43-1.27-2.1-1.35-2.21-.14-1-.41-1.06-.5-.58-.05.29-.36,2.24-1.65,2.87-.31.16-.23.43,0,.5"/></clipPath><clipPath id="clip-path-4"><rect class="cls-4" x="-982.73" y="-843.74" width="1440" height="6162"/></clipPath><clipPath id="clip-path-5"><path class="cls-3" d="M28.75,70.67c0-.07,0-.11,0-.1l0,0v-.07a1,1,0,0,1,0-.15,3.55,3.55,0,0,1-1.47,2.44c1.24.39,1.3,2,1.32,2.68v.18a8,8,0,0,0,.29-.86c0-.16.08-.31.11-.46A1.9,1.9,0,0,1,30,72.68,2.78,2.78,0,0,1,28.75,70.67Zm-.28,5.67c-.29,0-.39-.4-.42-.55a2.25,2.25,0,0,1,0-.35c0-.63-.06-1.94-1-2.19a.52.52,0,0,1-.39-.45.54.54,0,0,1,.31-.52,3.29,3.29,0,0,0,1.31-2.46c.08-.42.28-.47.4-.48s.42.31.52,1a1.31,1.31,0,0,1,0,.21c.1.41.32,1.39,1,1.65a.59.59,0,0,1,.42.53c0,.11-.05.32-.38.42-.6.21-.7.65-.84,1.27,0,.16-.07.32-.12.49-.31,1.09-.51,1.44-.8,1.44Z"/></clipPath><clipPath id="clip-path-6"><rect class="cls-4" x="-1023.77" y="-828.66" width="1440" height="6162"/></clipPath><clipPath id="clip-path-7"><path class="cls-3" d="M66.62,34.06c.75-3.91.67-5.62-3-6.31-.5-.11-14.51-2.74-18.33-3.57-4-.86-4.36,1.42-5,4.59-.3,1.58-1.61,8.69-2,10.46s-1.4,7.63-1.87,9.71-2.27,10.88-2.87,14C33,65.91,32.16,69,35,69.59c1,.18,16.33,3.33,20.72,4.28,3.66.79,3.57-2.08,4.37-6,.39-1.92,1.71-8.73,2.13-11.1s1.94-10.21,2.41-12.36.91-4.76,2-10.35"/></clipPath><clipPath id="clip-path-8"><rect class="cls-4" x="-983.4" y="-845" width="1440" height="6162"/></clipPath><clipPath id="clip-path-9"><path class="cls-3" d="M45.54,36a2.65,2.65,0,0,0-1,.38,2.41,2.41,0,0,0-1,1.52L39,61a2.33,2.33,0,0,0,.38,1.79,2.44,2.44,0,0,0,1.56,1L52.59,66a2.46,2.46,0,0,0,1.83-.37,2.37,2.37,0,0,0,1-1.52L60,41a2.33,2.33,0,0,0-.38-1.79,2.44,2.44,0,0,0-1.56-1L46.41,36a2.54,2.54,0,0,0-.87,0m8.08,31a3.28,3.28,0,0,1-1.21,0l-11.67-2.2a3.38,3.38,0,0,1-2.16-1.4,3.24,3.24,0,0,1-.52-2.47l4.57-23.19a3.3,3.3,0,0,1,1.43-2.11,3.43,3.43,0,0,1,2.53-.51l11.67,2.2a3.38,3.38,0,0,1,2.16,1.4,3.24,3.24,0,0,1,.52,2.47L56.37,64.32a3.3,3.3,0,0,1-1.43,2.11,3.41,3.41,0,0,1-1.32.52"/></clipPath><clipPath id="clip-path-11"><path class="cls-3" d="M51.52,52.08c-1,.67-5.58,4.29-5.71,4.21a9.68,9.68,0,0,1,1.59-2.55,26.6,26.6,0,0,0,2.35-3.58c0-.44-.86-.55-1.52-.69s-1.47-.22-1.27-.58.82-1.17,1.1-1.63,2.11-2.92,2.41-3.26c.6-.67.73-1.1,1-1,.49.16,2.76.48,2.93.53.45.13-1.16,1.69-1.65,2.17A18.12,18.12,0,0,0,51,47.88c-.27.45-.66,1-.14,1.13a16.55,16.55,0,0,1,3.09.91c.09.22-1.38,1.49-2.38,2.16M55,49.26a20.55,20.55,0,0,0-2.43-.71c-.61-.15-.61-.15-.4-.53.38-.65,3.16-3.81,3.51-4.26s.52-.92,0-1-4.64-1.09-5-.57-3.47,4.65-4.08,5.61a14,14,0,0,1-1,1.26c-.51.73,0,.88,1,1.08.61.13,1.79.33,1.81.51a40.42,40.42,0,0,1-2.65,4.11c-.72,1-1.55,2.38-1.67,2.65-.22.52.19.67.41.62a21.33,21.33,0,0,0,3.89-2.39c1.83-1.36,6-4.69,6.47-5.14s.72-.94.16-1.2"/></clipPath><clipPath id="clip-path-13"><path class="cls-3" d="M44.58,32a2.88,2.88,0,0,0-1.08.43,2.67,2.67,0,0,0-1.15,1.74L37,61.87a2.76,2.76,0,0,0,2.17,3.2L54.45,68a2.71,2.71,0,0,0,2-.42,2.67,2.67,0,0,0,1.15-1.74L63,38.13a2.76,2.76,0,0,0-2.17-3.2L45.55,32a2.88,2.88,0,0,0-1,0m11,37a3.61,3.61,0,0,1-1.31,0L39,66a3.69,3.69,0,0,1-2.91-4.3h0L41.42,34A3.69,3.69,0,0,1,43,31.63a3.65,3.65,0,0,1,2.76-.56L61,34a3.69,3.69,0,0,1,2.91,4.3L58.58,66A3.66,3.66,0,0,1,57,68.37a3.88,3.88,0,0,1-1.45.58"/></clipPath><clipPath id="clip-path-15"><rect class="cls-4" x="41.86" y="79.87" width="23.52" height="0.95"/></clipPath><clipPath id="clip-path-16"><rect class="cls-4" x="-1479.92" y="-753.79" width="2205.91" height="5705.64"/></clipPath><clipPath id="clip-path-17"><rect class="cls-4" x="41.25" y="79.56" width="26.04" height="1.85"/></clipPath><clipPath id="clip-path-18"><path class="cls-3" d="M63.32,79.89c-2.42,0-12.28,0-19.35,0-1.42,0-2.13.26-2.11.44s.37.31,2.28.36c2.54.08,4.38.14,7.94.13,5.22,0,10.21-.11,11.11-.13,2.17,0,3.51-.73.13-.8"/></clipPath><clipPath id="clip-path-19"><rect class="cls-4" x="41.25" y="79.56" width="24.51" height="1.85"/></clipPath><clipPath id="clip-path-20"><path class="cls-3" d="M79.64,76.76c-8-.14-8.21-.05-16.12.15-.87,0-1.22.67-.33.68,8.24.14,5.91.12,13.8,0,1.63,0,3.58-.07,3.68-.5.06-.27-.59-.35-1-.36"/></clipPath><clipPath id="clip-path-21"><rect class="cls-4" x="-936.73" y="-818.31" width="1440" height="6162"/></clipPath><clipPath id="clip-path-22"><path class="cls-5" d="M77.48,73.74c-4.33.07-4.57-.11-6.52-.1s-4,0-4,.61c0,.26.77.36,1.92.37,3.8,0,7.09,0,8.2,0s1.58,0,1.85-.33c.26-.56-1.45-.56-1.45-.56"/></clipPath><clipPath id="clip-path-23"><rect class="cls-6" x="-930.44" y="-816.36" width="1440" height="6162"/></clipPath><clipPath id="clip-path-24"><path class="cls-5" d="M81.19,48.22c-4.33.08-4.57-.11-6.52-.09s-4,0-4,.6c0,.26.77.36,1.92.37,3.8,0,7.09,0,8.2,0s1.58,0,1.85-.33c.26-.56-1.45-.56-1.45-.56"/></clipPath><clipPath id="clip-path-25"><rect class="cls-6" x="-926.73" y="-841.87" width="1440" height="6162"/></clipPath><clipPath id="clip-path-26"><path class="cls-3" d="M71.46,60.61c1.93.51,1.62,3.41,1.72,3.81.24,1,.59.38,1.07-1.26.34-1.12.3-2.26,1.61-2.69.53-.17.26-.48-.08-.61-1.36-.55-1.59-2.7-1.69-2.84-.17-1.27-.51-1.36-.62-.74-.07.36-.45,2.87-2.06,3.68-.39.2-.29.56,0,.65"/></clipPath><clipPath id="clip-path-27"><rect class="cls-4" x="-981.24" y="-850.09" width="1440" height="6162"/></clipPath><clipPath id="clip-path-28"><path class="cls-5" d="M29.32,59.85c3.7,0,7.52-.19,11.18.1.84.22.08.55-.24.55-.78.3-3.09.22-5.68.17-3.09,0-8.09.13-9.94.13S23,60.46,23,60.33a.27.27,0,0,1,.26-.25c2-.1,4.07-.21,6.11-.23"/></clipPath><clipPath id="clip-path-29"><rect class="cls-6" x="-1549.5" y="-825.2" width="2151.58" height="6162"/></clipPath><clipPath id="clip-path-30"><path class="cls-5" d="M-92.95,43.78c0-.05,0-.09,0-.08l0-.05v-.06a.69.69,0,0,1,0-.13,3.06,3.06,0,0,1-1.39,2.13c1.18.33,1.23,1.73,1.25,2.33v.15a4.86,4.86,0,0,0,.27-.75,2.85,2.85,0,0,0,.11-.39,1.68,1.68,0,0,1,1-1.4A2.43,2.43,0,0,1-92.95,43.78Zm-.25,4.94c-.28,0-.37-.35-.4-.48a1.74,1.74,0,0,1,0-.3c0-.55-.06-1.69-1-1.91a.48.48,0,0,1-.37-.39.44.44,0,0,1,.3-.45,2.85,2.85,0,0,0,1.24-2.14c.07-.37.26-.42.37-.42s.41.27.5.86l.05.18c.09.36.3,1.21.92,1.44.26.1.41.27.4.45s0,.28-.36.38c-.57.17-.66.56-.8,1.1,0,.14-.07.28-.11.42-.3.95-.48,1.26-.75,1.26Z"/></clipPath><clipPath id="clip-path-31"><path class="cls-5" d="M-42.3,76c-1.1-.53-1.37-2.15-1.42-2.39-.07-.4-.31-.34-.43.48-.06.09-.22,1.49-1.15,1.84-.24.09-.42.29-.06.4.9.27.88,1,1.1,1.74.34,1.06.58,1.47.75.82.06-.26-.15-2.14,1.18-2.47.23-.06.31-.29,0-.42"/></clipPath><clipPath id="clip-path-32"><path class="cls-5" d="M-34.45,66.76c-1.41-.67-1.75-2.74-1.81-3-.1-.51-.4-.43-.55.61-.08.12-.28,1.89-1.48,2.34-.29.12-.53.37-.07.51,1.15.35,1.12,1.29,1.41,2.22.42,1.35.73,1.87.94,1,.09-.33-.18-2.72,1.51-3.15.3-.07.39-.36,0-.53"/></clipPath><clipPath id="clip-path-33"><path class="cls-3" d="M-25.85,55.21c-1.27-.06-6.46,0-10.19,0-.74,0-1.12.34-1.11.56s.2.4,1.2.48c1.34.09,2.31.18,4.18.16,2.75,0,5.38-.14,5.86-.16,1.14-.06,1.84-1,.06-1"/></clipPath><clipPath id="clip-path-34"><path class="cls-3" d="M-21.06,51.58a129.43,129.43,0,0,0-13.08.19c-.71,0-1,.85-.28.87,6.7.18,4.81.15,11.21,0,1.32,0,2.91-.08,3-.63.05-.34-.47-.45-.83-.46"/></clipPath><clipPath id="clip-path-35"><path class="cls-3" d="M-67.4,76.73c-4.3.09-8.46,0-10.4,0s-4,.06-4,.7c0,.3.77.42,1.91.43,3.78,0,11-.12,12.08-.14s1.57,0,1.84-.39c.25-.65-1.45-.65-1.45-.65"/></clipPath><clipPath id="clip-path-36"><path class="cls-3" d="M-62.62,46.72l0,0s0,0,0,0"/></clipPath><clipPath id="clip-path-37"><path class="cls-7" d="M-44.57,52c-1.28,0-8.23.15-9.24-1.25-.83-1.15.32-2.54,2.64-3.07a25.35,25.35,0,0,1,6.51-.38c1.26,0,1.95,0,2-.38s-1-.57-4-.5c-2.5.06-5.22-.06-7.48,1.49a2.3,2.3,0,0,0-.47,3.49c1.56,1.47,5.32,1.37,8.69,1.36,2.17,0,3.5.07,3.75-.23.41-.49-1.08-.53-2.42-.53"/></clipPath><clipPath id="clip-path-38"><path class="cls-7" d="M-43.34,49.4c-.44-.07-.86,0-2.87-.09s-4.71-.13-5.1-.06c-.65.1-.4.82.33.84,3.08.08,4.16,0,7.1.06,1.41,0,1.69-.77.54-.75"/></clipPath><clipPath id="clip-path-39"><path class="cls-7" d="M-45.32,60.28a35.21,35.21,0,0,1-6.44-.46,14,14,0,0,1-6-2.39,20,20,0,0,1-6.7-7.65c-1.93-3.65-3-5.66-6.59-7.78s-10.81-2.11-12.91-2.11-3.21.65-2.53.94c.4.18,5.59,0,8.17.21a15.29,15.29,0,0,1,7.4,2.26,17.59,17.59,0,0,1,5.28,6.59,20.93,20.93,0,0,0,7.85,8.86c3.5,2.12,8.93,2.66,12.74,2.56,2.49-.07,2.63-.23,2.63-.63s-.89-.4-2.94-.4"/></clipPath><clipPath id="clip-path-40"><path class="cls-7" d="M-85.63,52.17c4.22,0,7.11.29,10.28-.5,1.8-.45,2.67-1.56,2.74-2.43.21-2.37-2.58-3.58-5.18-3.78a50.69,50.69,0,0,0-8.2.09c-1,.1-1.51,1-.25,1,1.69,0,3-.15,7.21-.12,1.53,0,4.88.37,5.39,2,.34,1.09-.09,1.73-1.91,2.24-3.34.93-5.87.66-8.63.68s-3,.2-2.72.6c.16.2.78.23,1.27.25"/></clipPath><clipPath id="clip-path-41"><path class="cls-7" d="M-77.73,49.54c.63,0,2.63-.1,1.72-.9a13.74,13.74,0,0,0-4-.3c-1.88,0-4.09.07-5.87.18-1.94.12-1,1.12-.26,1.06,3.24.15,5.18,0,8.42,0"/></clipPath><clipPath id="clip-path-42"><path class="cls-7" d="M-44.73,54.36c-4.66.11-9-.25-10.77-1.7A2.89,2.89,0,0,1-57,49.84a4.81,4.81,0,0,1,1.85-3A10.12,10.12,0,0,1-50,45.12,36.43,36.43,0,0,1-43.92,45c1.53,0,1.67-.77.2-.79s-3.59-.06-5.65,0a13.26,13.26,0,0,0-6.59,2A5.42,5.42,0,0,0-58.23,50c0,2.14,1.81,3.48,3.26,4a23.94,23.94,0,0,0,9.7,1.29c2.14-.08,3.36-.12,3.37-.64s-1.86-.36-2.83-.34"/></clipPath><clipPath id="clip-path-43"><path class="cls-3" d="M-35.89,27.82c-.13-.39-1.76-.45-3.6-.34h-.29c-.29,0,.06-.61.49-2.94s.9-4.53.57-5-1.91,3-2,3.12S-43,28-43.26,28.7c-.41,1-.8,1.69-.53,2.12a7.73,7.73,0,0,0,2.42,0c.88,0,.75.16.66.35s-.64,1.94-.87,2.54l-.26.67c-.24.6-1.5,3.88-1.12,4.07s6.63-9.69,6.7-9.78a1.42,1.42,0,0,0,.38-.86Z"/></clipPath><clipPath id="clip-path-44"><path class="cls-5" d="M-54.09,23.54c-1.1-.53-1.37-2.15-1.42-2.39-.07-.4-.31-.34-.43.48-.06.09-.22,1.49-1.16,1.84-.23.09-.41.29,0,.4.9.28.88,1,1.1,1.74.34,1.06.58,1.47.74.82.07-.26-.14-2.14,1.19-2.47.23-.06.3-.29,0-.42"/></clipPath></defs><g id="Layer_1" data-name="Layer 1"><g class="cls-8"><path class="cls-9" d="M86.93,50A36.93,36.93,0,1,1,50,13,37,37,0,0,1,86.93,50"/><g class="cls-10"><rect class="cls-2" x="12.65" y="12.63" width="75" height="75"/><g class="cls-11"><rect class="cls-2" x="8.07" y="7.98" width="83.86" height="84.05"/></g></g></g><g class="cls-12"><g class="cls-13"><rect class="cls-6" x="24.67" y="23.26" width="14" height="17"/></g></g><g class="cls-14"><g class="cls-15"><rect class="cls-6" x="21.63" y="64.34" width="14" height="17"/></g></g><g class="cls-16"><g class="cls-17"><rect class="cls-18" x="28" y="19" width="44" height="60"/></g></g><g class="cls-19"><g class="cls-17"><rect class="cls-20" x="33" y="30" width="33" height="42"/></g></g><g class="cls-21"><g class="cls-17"><rect class="cls-6" x="39" y="37" width="22" height="26"/></g></g><g class="cls-22"><g class="cls-17"><rect class="cls-20" x="31" y="26" width="38" height="48"/></g></g><g class="cls-23"><g class="cls-24"><g class="cls-8"><g class="cls-25"><g class="cls-26"><g class="cls-27"><rect class="cls-6" x="34.2" y="75.24" width="38.83" height="10.21"/></g></g></g></g></g></g><g class="cls-28"><g class="cls-29"><rect class="cls-18" x="57.67" y="71.69" width="28" height="11"/></g></g><path class="cls-30" d="M77.48,73.74c-4.33.07-4.57-.11-6.52-.1s-4,0-4,.61c0,.26.77.36,1.92.37,3.8,0,7.09,0,8.2,0s1.58,0,1.85-.33c.26-.56-1.45-.56-1.45-.56"/><g class="cls-31"><rect class="cls-6" x="-930.44" y="-816.36" width="1440" height="6162"/><g class="cls-32"><rect class="cls-6" x="61.96" y="68.64" width="22" height="11"/></g></g><path class="cls-30" d="M81.19,48.22c-4.33.08-4.57-.11-6.52-.09s-4,0-4,.6c0,.26.77.36,1.92.37,3.8,0,7.09,0,8.2,0s1.58,0,1.85-.33c.26-.56-1.45-.56-1.45-.56"/><g class="cls-33"><rect class="cls-6" x="-926.73" y="-841.87" width="1440" height="6162"/><g class="cls-34"><rect class="cls-6" x="65.67" y="43.13" width="22" height="11"/></g></g><g class="cls-35"><g class="cls-36"><rect class="cls-6" x="66.16" y="50.91" width="15" height="19"/></g></g><path class="cls-18" d="M11.61,47.47c-1.33.05-3.14.12-3,.71a.31.31,0,0,0,.33.21c1.2,0,2.7,0,3.91-.14a52.27,52.27,0,0,1,9.18.6c1,.24,3.17.66,2.39,1.45-2.12,2.13-6.34.5-13.14,2.75-1.37.47-3.46,2.22-2.19,3.92,1.74,1.18,4.07,1,6.09,1.11,7.22.17.6.08,6,.19,2.45,0,11.44.14,11.49-.47s-2.06-.61-2.32-.63c-2.93,0-2.82.15-13.63-.18-2.27-.07-6.78-.43-6.91-1.47s2.82-2.27,6.16-2.47,6.7-.57,9-2.07c.93-.61.78-1.67-.42-2.23C22.76,47.91,19.89,47.18,11.61,47.47Z"/><path class="cls-6" d="M11.07,55.57h0m6.87-10.28c-1.38,0-2.32.29-2.27.67s.86.35,3.42.46c1.69.07,7.64.75,10.47,1.83,1.46.61,3.37,2.35,2.39,3.63-1.18,1.56-8.74,2.26-13.27,2.44a8.88,8.88,0,0,0-2.49.31c-.67.78.92.83,1.51.78,0,0,.27,0,4.09-.12.51,0,8.54,0,10.76-2.62,1.41-1.69.4-4.22-2.7-5.54C28,46.33,24.18,45.29,17.94,45.29Z"/><path class="cls-18" d="M75.8,37.31c-1.33,0-3,0-3,.56,0,.32,2.51.08,4.23.06,2.3,0,3.47,1.34,2.61,1.76a20.93,20.93,0,0,1-4.42,1.06c-1,.18-2.84.56-4.8,1.11-1.37.4-3.46,1.88-2.19,3.32,1.75,1,4.08.8,6.1.94,7.21.14.59.06,6,.16,2.44,0,11.43.11,11.48-.4s-2-.52-2.32-.53c-2.93,0-2.82.12-13.63-.16-2.27-.06-6.78-.36-6.91-1.24s2.86-1.55,6.17-2.09,4.21-1,4.9-1.44a1.48,1.48,0,0,0,.22-2.22C79.74,37.52,77.9,37.3,75.8,37.31Z"/><path class="cls-30" d="M29.32,59.85c3.7,0,7.52-.19,11.18.1.84.22.08.55-.24.55-.78.3-3.09.22-5.68.17-3.09,0-8.09.13-9.94.13S23,60.46,23,60.33a.27.27,0,0,1,.26-.25c2-.1,4.07-.21,6.11-.23"/><g class="cls-37"><rect class="cls-6" x="-1549.5" y="-825.2" width="2151.58" height="6162"/><g class="cls-38"><rect class="cls-6" x="15.48" y="54.8" width="32.87" height="11"/></g></g><path class="cls-30" d="M-92.95,43.78c0-.05,0-.09,0-.08l0-.05v-.06a.69.69,0,0,1,0-.13,3.06,3.06,0,0,1-1.39,2.13c1.18.33,1.23,1.73,1.25,2.33v.15a4.86,4.86,0,0,0,.27-.75,2.85,2.85,0,0,0,.11-.39,1.68,1.68,0,0,1,1-1.4A2.43,2.43,0,0,1-92.95,43.78Zm-.25,4.94c-.28,0-.37-.35-.4-.48a1.74,1.74,0,0,1,0-.3c0-.55-.06-1.69-1-1.91a.48.48,0,0,1-.37-.39.44.44,0,0,1,.3-.45,2.85,2.85,0,0,0,1.24-2.14c.07-.37.26-.42.37-.42s.41.27.5.86l.05.18c.09.36.3,1.21.92,1.44.26.1.41.27.4.45s0,.28-.36.38c-.57.17-.66.56-.8,1.1,0,.14-.07.28-.11.42-.3.95-.48,1.26-.75,1.26Z"/><g class="cls-39"><rect class="cls-6" x="-787.75" y="-842.3" width="1440" height="6162"/></g><path class="cls-30" d="M-42.3,76c-1.1-.53-1.37-2.15-1.42-2.39-.07-.4-.31-.34-.43.48-.06.09-.22,1.49-1.15,1.84-.24.09-.42.29-.06.4.9.27.88,1,1.1,1.74.34,1.06.58,1.47.75.82.06-.26-.15-2.14,1.18-2.47.23-.06.31-.29,0-.42"/><g class="cls-40"><rect class="cls-6" x="-794.91" y="-833.12" width="1440" height="6162"/></g><path class="cls-30" d="M-34.45,66.76c-1.41-.67-1.75-2.74-1.81-3-.1-.51-.4-.43-.55.61-.08.12-.28,1.89-1.48,2.34-.29.12-.53.37-.07.51,1.15.35,1.12,1.29,1.41,2.22.42,1.35.73,1.87.94,1,.09-.33-.18-2.72,1.51-3.15.3-.07.39-.36,0-.53"/><g class="cls-41"><rect class="cls-6" x="-791.41" y="-830.82" width="1440" height="6162"/></g><path class="cls-46" d="M-44.57,52c-1.28,0-8.23.15-9.24-1.25-.83-1.15.32-2.54,2.64-3.07a25.35,25.35,0,0,1,6.51-.38c1.26,0,1.95,0,2-.38s-1-.57-4-.5c-2.5.06-5.22-.06-7.48,1.49a2.3,2.3,0,0,0-.47,3.49c1.56,1.47,5.32,1.37,8.69,1.36,2.17,0,3.5.07,3.75-.23.41-.49-1.08-.53-2.42-.53"/><g class="cls-47"><rect class="cls-48" x="-789.54" y="-844.85" width="1440" height="6162"/></g><path class="cls-46" d="M-43.34,49.4c-.44-.07-.86,0-2.87-.09s-4.71-.13-5.1-.06c-.65.1-.4.82.33.84,3.08.08,4.16,0,7.1.06,1.41,0,1.69-.77.54-.75"/><g class="cls-49"><rect class="cls-48" x="-789.54" y="-844.85" width="1440" height="6162"/></g><path class="cls-46" d="M-45.32,60.28a35.21,35.21,0,0,1-6.44-.46,14,14,0,0,1-6-2.39,20,20,0,0,1-6.7-7.65c-1.93-3.65-3-5.66-6.59-7.78s-10.81-2.11-12.91-2.11-3.21.65-2.53.94c.4.18,5.59,0,8.17.21a15.29,15.29,0,0,1,7.4,2.26,17.59,17.59,0,0,1,5.28,6.59,20.93,20.93,0,0,0,7.85,8.86c3.5,2.12,8.93,2.66,12.74,2.56,2.49-.07,2.63-.23,2.63-.63s-.89-.4-2.94-.4"/><g class="cls-50"><rect class="cls-48" x="-789.54" y="-844.85" width="1440" height="6162"/></g><path class="cls-46" d="M-85.63,52.17c4.22,0,7.11.29,10.28-.5,1.8-.45,2.67-1.56,2.74-2.43.21-2.37-2.58-3.58-5.18-3.78a50.69,50.69,0,0,0-8.2.09c-1,.1-1.51,1-.25,1,1.69,0,3-.15,7.21-.12,1.53,0,4.88.37,5.39,2,.34,1.09-.09,1.73-1.91,2.24-3.34.93-5.87.66-8.63.68s-3,.2-2.72.6c.16.2.78.23,1.27.25"/><g class="cls-51"><rect class="cls-48" x="-789.54" y="-844.85" width="1440" height="6162"/></g><path class="cls-46" d="M-77.73,49.54c.63,0,2.63-.1,1.72-.9a13.74,13.74,0,0,0-4-.3c-1.88,0-4.09.07-5.87.18-1.94.12-1,1.12-.26,1.06,3.24.15,5.18,0,8.42,0"/><g class="cls-52"><rect class="cls-48" x="-789.54" y="-844.85" width="1440" height="6162"/></g><path class="cls-46" d="M-44.73,54.36c-4.66.11-9-.25-10.77-1.7A2.89,2.89,0,0,1-57,49.84a4.81,4.81,0,0,1,1.85-3A10.12,10.12,0,0,1-50,45.12,36.43,36.43,0,0,1-43.92,45c1.53,0,1.67-.77.2-.79s-3.59-.06-5.65,0a13.26,13.26,0,0,0-6.59,2A5.42,5.42,0,0,0-58.23,50c0,2.14,1.81,3.48,3.26,4a23.94,23.94,0,0,0,9.7,1.29c2.14-.08,3.36-.12,3.37-.64s-1.86-.36-2.83-.34"/><g class="cls-53"><rect class="cls-48" x="-789.54" y="-844.85" width="1440" height="6162"/></g><path class="cls-30" d="M-54.09,23.54c-1.1-.53-1.37-2.15-1.42-2.39-.07-.4-.31-.34-.43.48-.06.09-.22,1.49-1.16,1.84-.23.09-.41.29,0,.4.9.28.88,1,1.1,1.74.34,1.06.58,1.47.74.82.07-.26-.14-2.14,1.19-2.47.23-.06.3-.29,0-.42"/><g class="cls-55"><rect class="cls-6" x="-806.7" y="-885.54" width="1440" height="6162"/></g></g></svg>